<svg xmlns="http://www.w3.org/2000/svg" width="320" height="4.4" viewBox="0 0 320 4.4"><rect width="320" height="3.2" fill="#17150f"/><g fill="#fff"><path d="M8.0,4.2 L8.0,2.0 L10.7,2.8 L13.3,4.2 Z"/><rect x="38.7" y="2.5" width="3.5" height="1.7"/><rect x="57.8" y="2.7" width="3.6" height="1.5"/><rect x="73.0" y="2.3" width="2.3" height="1.9"/><rect x="98.7" y="2.6" width="4.6" height="1.6"/><path d="M133.3,4.2 L133.3,2.3 L135.4,2.3 L137.5,4.2 Z"/><path d="M157.2,4.2 L157.2,2.6 L159.6,2.7 L162.0,4.2 Z"/><path d="M180.6,4.2 L180.6,2.5 L181.7,2.7 L182.9,4.2 Z"/><rect x="204.7" y="2.8" width="4.3" height="1.4"/><rect x="227.9" y="2.8" width="4.9" height="1.4"/><path d="M246.2,4.2 L246.2,2.7 L247.3,2.8 L248.3,4.2 Z"/><rect x="267.3" y="2.7" width="3.3" height="1.5"/><rect x="300.5" y="2.7" width="4.0" height="1.5"/><rect x="225.5" y="2.2" width="0.4" height="0.4"/><rect x="292.3" y="1.7" width="0.7" height="0.5"/><rect x="310.1" y="0.5" width="0.5" height="0.3"/><rect x="257.8" y="1.9" width="0.7" height="0.9"/><rect x="301.8" y="1.6" width="0.7" height="0.8"/><rect x="111.4" y="2.5" width="0.4" height="0.3"/><rect x="26.0" y="1.4" width="0.4" height="0.5"/><rect x="302.3" y="0.9" width="0.3" height="0.3"/><rect x="55.6" y="1.6" width="0.6" height="0.5"/></g></svg>